<?xml version="1.0" encoding="utf-8"?>
<!-- Generator: Adobe Illustrator 26.2.1, SVG Export Plug-In . SVG Version: 6.00 Build 0)  -->
<svg version="1.1" id="flexLineIcon-circle-setting" xmlns="http://www.w3.org/2000/svg" xmlns:xlink="http://www.w3.org/1999/xlink" x="0px"
	 y="0px" viewBox="0 0 300 300" style="enable-background:new 0 0 300 300;" xml:space="preserve">
<style type="text/css">
	.st0{fill:none;stroke:#000000;stroke-width:30;stroke-linecap:round;stroke-linejoin:round;stroke-miterlimit:10;}
</style>
<path class="st0" d="M240.7,60.7L202.2,83c-6.1-4.8-12.9-8.7-20.2-11.7V26.8c-10.2-2.6-20.9-4.1-32-4.1s-21.8,1.4-32,4.1v44.5
	c-7.3,3-14.1,6.9-20.2,11.7L59.3,60.7c-15,15.2-26.2,34.2-32,55.4l38.6,22.3c-0.5,3.8-0.8,7.7-0.8,11.7c0,4,0.3,7.8,0.8,11.7
	l-38.6,22.3c5.8,21.2,17,40.1,32,55.4L97.8,217c6.1,4.8,12.9,8.7,20.2,11.7v44.5c10.2,2.6,20.9,4.1,32,4.1s21.8-1.4,32-4.1v-44.5
	c7.3-3,14.1-6.9,20.2-11.7l38.6,22.3c15-15.2,26.2-34.2,32-55.4l-38.6-22.3c0.5-3.8,0.8-7.7,0.8-11.7c0-4-0.3-7.8-0.8-11.7
	l38.6-22.3C266.9,94.9,255.7,75.9,240.7,60.7z"/>
<circle class="st0" cx="150" cy="150" r="9.6"/>
</svg>
