<?xml version="1.0" encoding="utf-8"?>
<!-- Generator: Adobe Illustrator 26.3.1, SVG Export Plug-In . SVG Version: 6.00 Build 0)  -->
<svg version="1.1" id="flexLineIcon-sp" xmlns="http://www.w3.org/2000/svg" xmlns:xlink="http://www.w3.org/1999/xlink" x="0px"
	 y="0px" viewBox="0 0 300 300" style="enable-background:new 0 0 300 300;" xml:space="preserve">
<style type="text/css">
	.st0{fill:#FFFFFF;}
</style>
<g>
	<g>
		<path class="st0" d="M193.6,19.9c16.5,0,30,13.5,30,30v201.8c0,16.5-13.5,30-30,30h-87.2c-16.5,0-30-13.5-30-30V49.9
			c0-16.5,13.5-30,30-30L193.6,19.9 M193.6,5.4h-87.2c-24.5,0-44.5,19.9-44.5,44.5v201.8c0,24.5,19.9,44.5,44.5,44.5h87.2
			c24.5,0,44.5-19.9,44.5-44.5V49.9C238.1,25.4,218.1,5.4,193.6,5.4L193.6,5.4z"/>
	</g>
	<g>
		<path class="st0" d="M111.9,48.2c4.4,0,8,3.6,8,8s-3.6,8-8,8s-8-3.6-8-8S107.5,48.2,111.9,48.2 M111.9,33.7
			c-12.4,0-22.5,10.1-22.5,22.5s10.1,22.5,22.5,22.5s22.5-10.1,22.5-22.5S124.3,33.7,111.9,33.7L111.9,33.7z"/>
	</g>
</g>
</svg>
