<?xml version="1.0" encoding="utf-8"?>
<!-- Generator: Adobe Illustrator 26.3.1, SVG Export Plug-In . SVG Version: 6.00 Build 0)  -->
<svg version="1.1" id="flexLineIcon-pc" xmlns="http://www.w3.org/2000/svg" xmlns:xlink="http://www.w3.org/1999/xlink" x="0px"
	 y="0px" viewBox="0 0 300 300" style="enable-background:new 0 0 300 300;" xml:space="preserve">
<style type="text/css">
	.st0{fill:#FFFFFF;}
	.st1{fill:none;stroke:#FFFFFF;stroke-width:16.7687;stroke-linecap:round;stroke-linejoin:round;stroke-miterlimit:10;}
</style>
<g>
	<path class="st0" d="M237.7,57.7c16.5,0,30,13.5,30,30v87.2c0,16.5-13.5,30-30,30H62.3c-16.5,0-30-13.5-30-30V87.7
		c0-16.5,13.5-30,30-30L237.7,57.7 M237.7,43.2H62.3c-24.5,0-44.5,19.9-44.5,44.5v87.2c0,24.5,19.9,44.5,44.5,44.5h175.5
		c24.5,0,44.5-19.9,44.5-44.5V87.7C282.2,63.2,262.3,43.2,237.7,43.2L237.7,43.2z"/>
</g>
<line class="st1" x1="11.1" y1="242.3" x2="288.9" y2="242.3"/>
</svg>
