<?xml version="1.0" encoding="utf-8"?>
<!-- Generator: Adobe Illustrator 26.3.1, SVG Export Plug-In . SVG Version: 6.00 Build 0)  -->
<svg version="1.1" id="flexLineIcon-camera" xmlns="http://www.w3.org/2000/svg" xmlns:xlink="http://www.w3.org/1999/xlink"
	 x="0px" y="0px" viewBox="0 0 300 300" style="enable-background:new 0 0 300 300;" xml:space="preserve">
<style type="text/css">
	.st0{fill:#FFFFFF;}
</style>
<g>
	<path class="st0" d="M194.9,55.5c8.8,0,18.4,7.8,21.3,17.3l7.5,24.6h41.6c11.2,0,20.4,9.1,20.4,20.4v106.5
		c0,11.2-9.1,20.4-20.4,20.4H34.7c-11.2,0-20.4-9.1-20.4-20.4V117.7c0-11.2,9.1-20.4,20.4-20.4h41.6l7.5-24.6
		c2.9-9.5,12.5-17.3,21.3-17.3s24.2,0,34.1,0h21.5C170.7,55.5,186.1,55.5,194.9,55.5 M194.9,41h-34.1h-21.5h-34.1
		C89.9,41,74.8,52.8,70,68.5l-4.4,14.3H34.7c-19.2,0-34.8,15.6-34.8,34.8v106.5c0,19.2,15.6,34.8,34.8,34.8h230.7
		c19.2,0,34.8-15.6,34.8-34.8V117.7c0-19.2-15.6-34.8-34.8-34.8h-30.9l-4.4-14.3C225.3,52.9,210.2,41,194.9,41L194.9,41z"/>
</g>
<g>
	<g>
		<path class="st0" d="M150,114.9c26.9,0,48.7,21.8,48.7,48.7s-21.8,48.7-48.7,48.7s-48.7-21.8-48.7-48.7S123.1,114.9,150,114.9
			 M150,100.4c-34.8,0-63.2,28.3-63.2,63.2c0,34.8,28.3,63.2,63.2,63.2c34.8,0,63.2-28.3,63.2-63.2S184.8,100.4,150,100.4L150,100.4
			z"/>
	</g>
</g>
</svg>
